Coordinates
version=1
nRows=14
nColumns=24
inDegrees=yes

Units are S.I. units (second, meters, Newtons, ...)
Angles are in degrees.

endheader
time	pelvis_tilt	pelvis_list	pelvis_rotation	pelvis_tx	pelvis_ty	pelvis_tz	hip_flexion_r	hip_adduction_r	hip_rotation_r	knee_angle_r	ankle_angle_r	subtalar_angle_r	mtp_angle_r	hip_flexion_l	hip_adduction_l	hip_rotation_l	knee_angle_l	ankle_angle_l	subtalar_angle_l	mtp_angle_l	lumbar_extension	lumbar_bending	lumbar_rotation
      0.45400000	      3.76270149	     -0.69019349	     -0.16164614	     -0.71109970	      1.02454648	      0.27056817	      9.89084296	      1.81433200	      0.12253015	      1.01508976	      3.82237895	     -5.13392315	      0.29863230	    -16.73052038	      3.94296790	      7.85611489	    -12.55694537	      6.23115972	    -12.55460287	      0.36529810	    -18.41557781	      9.22269891	     -7.02724741
      0.45816667	      3.80517443	     -0.74201947	     -0.14726082	     -0.70565046	      1.02400681	      0.27071399	      9.76193373	      1.94361284	      0.29001643	      1.00804499	      3.62004155	     -4.84947110	      0.43083837	    -16.86981193	      3.86813994	      7.71061585	    -13.01343038	      6.17555499	    -12.29161384	      0.50367459	    -18.46019570	      9.30468341	     -6.89132058
      0.46233333	      3.80379082	     -0.80142891	     -0.11129426	     -0.70020072	      1.02340704	      0.27090765	      9.67078554	      2.08459615	      0.54909909	      0.94930420	      3.38370609	     -4.84103265	      0.66200109	    -16.89126453	      3.75937509	      7.41698232	    -13.61212144	      6.28088021	    -11.74340384	      0.80945124	    -18.43163079	      9.37167511	     -6.83537064
      0.46650000	      3.82167217	     -0.88481283	     -0.09612494	     -0.69471896	      1.02283112	      0.27112155	      9.56943261	      2.25292306	      0.82911431	      0.81236697	      3.06183317	     -4.86744345	      0.94114882	    -16.94397769	      3.63275710	      7.14459026	    -14.19061281	      6.31822400	    -11.26523946	      1.24013873	    -18.43099983	      9.48442001	     -6.78969818
      0.47066667	      3.80948877	     -0.96844948	     -0.08833522	     -0.68922012	      1.02222946	      0.27135302	      9.51730190	      2.42245286	      1.12339085	      0.58434960	      2.72359186	     -4.93092394	      1.25192359	    -16.94630028	      3.50565592	      6.86098716	    -14.80504382	      6.33188674	    -10.78496793	      1.78663892	    -18.38974618	      9.60293870	     -6.73030265
      0.47483333	      3.86103613	     -1.07963138	     -0.09333120	     -0.68365877	      1.02172624	      0.27158897	      9.40104992	      2.62089397	      1.39351609	      0.29702079	      2.32697281	     -5.01688968	      3.90710311	    -17.04538286	      3.35577936	      6.61403212	    -15.34267467	      6.10544012	    -10.54594284	      6.92320284	    -18.41376411	      9.75794673	     -6.70316101
      0.47900000	      3.86721900	     -1.19195132	     -0.09410148	     -0.67810581	      1.02114340	      0.27183714	      9.35525881	      2.81971945	      1.66176097	     -0.08248517	      1.99493116	     -5.07497320	      3.93919013	    -17.04301090	      3.19482025	      6.29983293	    -16.00611093	      6.08777529	    -10.03101638	      6.99763461	    -18.39560099	      9.90542035	     -6.61826118
      0.48316667	      3.90880084	     -1.32255268	     -0.10520540	     -0.67252374	      1.02062207	      0.27212392	      9.27112026	      3.04188438	      1.95900137	     -0.50000678	      1.62854646	     -5.22979286	      3.98431734	    -17.06789454	      3.01130928	      5.94969217	    -16.68250901	      6.02509262	     -9.51209365	      7.15791124	    -18.41684926	     10.06609918	     -6.55439011
      0.48733333	      3.92584395	     -1.46051568	     -0.12049108	     -0.66692476	      1.02006475	      0.27242647	      9.22982240	      3.27232016	      2.24901479	     -0.98375638	      1.26911188	     -5.41486999	      4.04348531	    -17.04004976	      2.81585806	      5.57799555	    -17.40941782	      5.94364251	     -8.96559766	      7.40846484	    -18.40767858	     10.23601140	     -6.48031867
      0.49150000	      3.97388774	     -1.60466460	     -0.14646959	     -0.66130828	      1.01954932	      0.27275029	      9.16602447	      3.51130000	      2.53151360	     -1.51815225	      0.92662040	     -5.62519805	      4.11584649	    -17.03098525	      2.61017470	      5.16771082	    -18.16166766	      5.83544563	     -8.39018723	      7.75697131	    -18.43269878	     10.40663628	     -6.40092303
      0.49566667	      3.99173050	     -1.76404629	     -0.17756766	     -0.65565975	      1.01899612	      0.27309796	      9.13530268	      3.76871857	      2.85601437	     -2.07687930	      0.55255930	     -5.99203133	      5.08069138	    -16.97375377	      2.38626857	      4.76338632	    -18.92958956	      5.55489491	     -7.96530162	     12.74005947	    -18.42095103	     10.61294936	     -6.31479438
      0.49983333	      4.03682348	     -1.90180278	     -0.20501387	     -0.65002282	      1.01849441	      0.27342420	      9.12219613	      3.99660722	      3.03207052	     -2.75377019	      0.32028678	     -6.07679219	      5.09750056	    -16.90919716	      2.17538605	      4.32030761	    -19.77049653	      5.36326954	     -7.33935451	     12.84345469	    -18.44124382	     10.77810840	     -6.25415587
      0.50400000	      4.04892719	     -2.04090031	     -0.24578855	     -0.64437898	      1.01794165	      0.27379224	      9.14807961	      4.23091682	      3.26786268	     -3.45363784	      0.09521448	     -6.31300129	      5.11793569	    -16.77991629	      1.95935751	      3.85676045	    -20.66377387	      5.13569623	     -6.73613562	     13.03358031	    -18.42491587	     10.93912561	     -6.17822681
      0.50816667	      4.08274370	     -2.19964199	     -0.27659812	     -0.63871945	      1.01742922	      0.27415010	      9.16330106	      4.48460179	      3.45668172	     -4.19568203	     -0.11433094	     -6.59058829	      5.14864012	    -16.65165356	      1.71068187	      3.38870802	    -21.59448167	      4.89359683	     -6.05892139	     13.37475585	    -18.43362845	     11.14148688	     -6.08884109
